<?xml version="1.0" standalone="no"?>
<!DOCTYPE svg PUBLIC "-//W3C//DTD SVG 20010904//EN"
 "http://www.w3.org/TR/2001/REC-SVG-20010904/DTD/svg10.dtd">
<svg version="1.0" xmlns="http://www.w3.org/2000/svg"
 width="500.000000pt" height="500.000000pt" viewBox="0 0 500.000000 500.000000"
 preserveAspectRatio="xMidYMid meet">
<metadata>
Created by potrace 1.11, written by Peter Selinger 2001-2013
</metadata>
<g transform="translate(0.000000,500.000000) scale(0.100000,-0.100000)"
fill="#000000" stroke="none">
<path d="M2418 4586 c-12 -6 -27 -21 -33 -32 -7 -13 -10 -345 -9 -980 1 -527
2 -963 3 -969 3 -18 52 -47 83 -49 28 -2 45 6 214 104 17 10 42 24 55 32 12 7
28 17 33 21 29 21 146 87 155 87 6 0 11 4 11 9 0 5 10 13 22 17 12 3 26 11 32
15 16 13 178 110 196 117 8 3 20 10 25 14 22 18 86 58 93 58 4 0 31 16 61 35
29 19 56 35 61 35 4 0 13 7 20 15 7 8 16 13 20 10 5 -3 10 -2 12 3 4 10 206
132 219 132 5 0 9 5 9 10 0 6 4 10 9 10 10 0 266 148 313 181 15 11 32 19 37
19 5 0 23 14 40 31 28 27 31 37 31 89 0 68 18 52 -190 170 -41 24 -77 46 -80
49 -3 3 -18 13 -35 21 -16 8 -63 34 -103 58 -40 23 -77 42 -82 42 -6 0 -10 4
-10 9 0 5 -10 13 -22 17 -13 4 -25 9 -28 13 -3 3 -21 14 -40 25 -94 49 -146
80 -152 90 -4 6 -8 7 -8 3 0 -5 -13 1 -29 12 -16 12 -34 21 -40 21 -6 0 -11 5
-11 10 0 6 -4 10 -10 10 -5 0 -39 18 -75 40 -36 22 -67 40 -70 40 -3 0 -83 46
-150 87 -11 7 -27 16 -35 20 -16 7 -225 127 -250 143 -38 23 -167 96 -185 103
-32 14 -83 15 -107 3z"/>
<path d="M1065 2635 c-377 -375 -685 -688 -685 -693 0 -6 -5 -12 -11 -14 -14
-5 -2 -68 12 -68 5 0 9 -6 9 -12 0 -18 71 -51 140 -64 14 -3 43 -10 65 -16 22
-5 47 -11 55 -13 8 -2 60 -15 115 -29 55 -15 114 -29 130 -32 17 -3 38 -10 48
-15 9 -6 22 -7 27 -4 6 3 10 1 10 -5 0 -6 4 -8 10 -5 5 3 18 1 29 -5 11 -5 32
-12 48 -14 15 -1 48 -9 73 -16 25 -8 48 -13 52 -12 4 1 20 -3 35 -9 15 -6 39
-13 53 -16 42 -8 55 -11 55 -13 0 -1 7 -3 15 -5 35 -9 59 -14 125 -30 86 -21
79 -19 195 -51 109 -29 139 -36 160 -37 8 0 21 -4 28 -10 6 -5 12 -6 12 -3 0
4 8 2 19 -3 10 -6 33 -13 52 -16 19 -3 75 -17 124 -30 50 -14 99 -26 110 -28
11 -2 28 -8 38 -12 46 -19 143 76 126 123 -5 13 -11 33 -13 45 -2 12 -10 42
-17 67 -14 50 -16 57 -23 85 -18 68 -67 249 -81 300 -9 33 -27 101 -40 150
-23 85 -31 115 -70 260 -9 33 -18 69 -20 79 -3 10 -9 33 -15 51 -6 18 -13 42
-15 54 -17 74 -27 115 -33 126 -3 5 -7 18 -9 30 -4 30 -9 47 -21 78 -7 16 -12
37 -12 48 0 11 -4 28 -10 38 -5 10 -12 33 -15 52 -3 19 -10 48 -16 65 -5 17
-12 40 -14 50 -17 72 -29 111 -37 127 -5 10 -6 22 -3 27 4 6 1 10 -5 10 -6 0
-9 4 -5 10 6 10 -31 57 -58 72 -50 26 -37 37 -742 -667z"/>
<path d="M3122 2457 c-32 -22 -57 -63 -66 -107 -2 -14 -19 -79 -36 -145 -44
-169 -109 -426 -115 -450 -2 -11 -11 -47 -20 -80 -9 -33 -18 -69 -21 -80 -2
-11 -6 -30 -8 -42 -3 -12 -9 -30 -15 -41 -6 -11 -8 -22 -6 -24 3 -3 -4 -33
-15 -68 -11 -35 -18 -65 -15 -68 3 -3 1 -10 -4 -16 -5 -6 -14 -33 -19 -61 -9
-41 -30 -127 -67 -268 -3 -9 -7 -25 -9 -35 -2 -9 -9 -35 -14 -57 -6 -22 -13
-52 -16 -67 -2 -15 -8 -33 -12 -39 -4 -7 -8 -22 -10 -33 -2 -12 -6 -32 -9 -46
-3 -14 -8 -32 -10 -40 -2 -8 -4 -15 -6 -15 -1 0 -3 -9 -4 -20 -1 -11 -5 -30
-9 -41 -11 -37 95 -138 120 -114 5 4 25 11 44 14 19 3 58 12 85 21 28 9 64 19
80 22 17 3 38 9 48 14 9 5 17 7 17 4 0 -3 8 -1 18 4 9 5 34 12 56 15 21 4 43
9 48 12 5 3 24 8 41 11 17 3 45 12 60 20 16 8 31 12 34 9 3 -2 22 2 43 9 21 7
51 16 67 18 15 3 41 10 57 16 16 6 31 9 34 6 3 -2 11 0 19 6 7 6 13 8 13 5 0
-4 9 -2 21 4 20 11 56 20 92 23 9 1 17 6 17 11 0 5 2 7 5 4 3 -3 36 3 73 14
90 26 105 29 120 30 6 1 12 5 12 10 0 5 4 7 8 4 5 -3 26 0 48 6 21 7 42 13 47
14 4 1 8 2 10 4 1 1 11 3 22 4 11 2 45 11 76 20 31 9 65 19 75 21 92 22 111
26 124 32 8 3 24 8 35 10 11 2 31 7 45 12 14 5 58 17 99 27 56 14 81 26 107
52 67 67 109 18 -653 780 -444 443 -696 688 -709 689 -12 1 -35 -8 -52 -20z"/>
</g>
</svg>
